<?xml version="1.0" encoding="UTF-8"?>
<svg width="24px" height="24px" viewBox="0 0 24 24" version="1.1" xmlns="http://www.w3.org/2000/svg" xmlns:xlink="http://www.w3.org/1999/xlink">
    <!-- Generator: Sketch 56.3 (81716) - https://sketch.com -->
    <title>profit</title>
    <desc>Created with Sketch.</desc>
    <g id="profit" stroke="none" stroke-width="1" fill="none" fill-rule="evenodd">
        <g id="profits" transform="translate(2.000000, 2.000000)" fill="#FFFFFF" fill-rule="nonzero">
            <path d="M17.9370824,12.6585859 C19.2076706,13.4060606 19.9653176,14.6424242 19.9653176,15.9676768 C19.9653176,18.1777778 17.8759059,19.9717172 15.2970824,19.9717172 C12.7229647,19.9717172 10.6334986,18.1777778 10.6334986,15.9636364 C10.6288471,15.1313131 10.9300235,14.3191919 11.4900235,13.6444444 L11.4900235,7.61212121 C11.4900235,7.38585859 11.7064941,7.22828283 11.9653176,7.22828283 L13.7864941,7.22828283 C14.0453176,7.22828283 14.2664941,7.38989899 14.2664941,7.61212121 L14.2664941,12.0606061 C14.5582588,12 14.8594353,11.9676768 15.1606118,11.959596 L15.1606118,5.5030303 C15.1606118,5.28080808 15.3864941,5.12727273 15.6453176,5.12727273 L17.4664941,5.12727273 C17.7253176,5.12727273 17.9370824,5.28080808 17.9370824,5.5030303 L17.9370824,12.6585859 Z M15.3064941,15.6363636 C14.9770824,15.6363636 14.7135529,15.410101 14.7135529,15.1272727 C14.7135529,14.8444444 14.9723765,14.6181818 15.3017882,14.6141414 C15.6312,14.6141414 15.8947294,14.8444444 15.8947294,15.1232323 C15.8947294,15.3454545 16.1064941,15.5272727 16.3653176,15.5272727 C16.6288471,15.5272727 16.8406118,15.3494949 16.8453176,15.1232323 C16.8453176,14.5818182 16.4594353,14.0929293 15.8712,13.8949495 L15.8712,13.559596 C15.8712,13.3373737 15.6594353,13.1555556 15.4006118,13.1555556 C15.1417882,13.1555556 14.9300235,13.3373737 14.9300235,13.559596 L14.9300235,13.8505051 C14.1112,14.0323232 13.6170824,14.7515152 13.8288471,15.4545455 C13.9982588,16.0363636 14.6053176,16.440404 15.3017882,16.440404 C15.6264941,16.440404 15.8900235,16.6707071 15.8900235,16.9494949 C15.8900235,17.2282828 15.6217882,17.4545455 15.2970824,17.4545455 C14.9723765,17.4545455 14.7088471,17.2242424 14.7088471,16.9454545 C14.7088471,16.7232323 14.4970824,16.5414141 14.2382588,16.5414141 C13.9794353,16.5414141 13.7723765,16.7191919 13.7770824,16.9414141 L13.7770824,16.9454545 C13.7817882,17.5434343 14.2523765,18.0686869 14.9253176,18.2181818 L14.9253176,18.4 C14.9253176,18.6222222 15.1370824,18.8040404 15.3959059,18.8040404 C15.6547294,18.8040404 15.8664941,18.6222222 15.8664941,18.4 L15.8664941,18.1777778 C16.6570824,17.9111111 17.0429647,17.1474747 16.7370824,16.4727273 C16.5064941,15.9676768 15.9370824,15.6363636 15.3064941,15.6363636 Z" id="Combined-Shape"></path>
            <path d="M6.40767059,10.4606061 L4.57237647,10.4606061 C4.31355294,10.4606061 4.10178824,10.6424242 4.10178824,10.8646465 L4.10178824,17.2080808 C4.10178824,17.430303 4.31355294,17.6121212 4.57237647,17.6121212 L6.40767059,17.6121212 C6.66649412,17.6121212 6.87825882,17.430303 6.87825882,17.2080808 L6.87825882,10.8646465 C6.87825882,10.6424242 6.66649412,10.4606061 6.40767059,10.4606061 Z" id="Shape"></path>
            <path d="M10.1253176,9.53131313 L8.29002353,9.53131313 C8.0312,9.53131313 7.81943529,9.71313131 7.81943529,9.93535354 L7.81943529,17.2484848 C7.81943529,17.4707071 8.0312,17.6525253 8.29002353,17.6525253 L10.1253176,17.6525253 C10.3841412,17.6525253 10.5959059,17.4707071 10.5959059,17.2484848 L10.5959059,9.93535354 C10.5959059,9.71313131 10.3841412,9.53131313 10.1253176,9.53131313 Z" id="Shape"></path>
            <path d="M2.69002353,13.9353535 L0.854729412,13.9353535 C0.595905882,13.9353535 0.384141176,14.1171717 0.384141176,14.3393939 L0.384141176,17.2080808 C0.384141176,17.430303 0.595905882,17.6121212 0.854729412,17.6121212 L2.69002353,17.6121212 C2.94884706,17.6121212 3.16061176,17.430303 3.16061176,17.2080808 L3.16061176,14.3393939 C3.16061176,14.1171717 2.94884706,13.9353535 2.69002353,13.9353535 Z" id="Shape"></path>
            <path d="M17.8664941,0 L14.6476706,0.00404040404 C14.3888471,0 14.1770824,0.181818182 14.1723765,0.404040404 C14.1676706,0.626262626 14.3794353,0.808080808 14.6382588,0.812121212 C14.6429647,0.812121212 14.6429647,0.812121212 14.6476706,0.812121212 L16.7323765,0.808080808 L11.6264941,5.17575758 L9.84296471,3.65656566 C9.75355294,3.58383838 9.6312,3.54747475 9.50884706,3.55151515 C9.38649412,3.54747475 9.26414118,3.58383838 9.17472941,3.65656566 L0.139435294,11.4141414 C-0.0440941176,11.5717172 -0.0440941176,11.8262626 0.139435294,11.979798 C0.228847059,12.0565657 0.346494118,12.0969697 0.473552941,12.0969697 C0.600611765,12.0969697 0.718258824,12.0565657 0.807670588,11.979798 L9.51355294,4.50505051 L11.2970824,6.04848485 C11.3817882,6.12929293 11.5041412,6.17373737 11.6312,6.17777778 C11.7582588,6.17373737 11.8759059,6.12525253 11.9653176,6.04848485 L17.3959059,1.38181818 L17.3912,3.17979798 C17.3912,3.40606061 17.5982588,3.58787879 17.8617882,3.5959596 C18.1253176,3.59191919 18.3323765,3.40606061 18.3323765,3.17979798 L18.3370824,0.408080808 C18.3370824,0.185858586 18.1253176,0 17.8664941,0 Z" id="Path"></path>
        </g>
    </g>
</svg>