<?xml version="1.0" encoding="UTF-8"?>
<svg width="24px" height="24px" viewBox="0 0 24 24" version="1.1" xmlns="http://www.w3.org/2000/svg" xmlns:xlink="http://www.w3.org/1999/xlink">
    <!-- Generator: Sketch 56.3 (81716) - https://sketch.com -->
    <title>Icon/Tasklis</title>
    <desc>Created with Sketch.</desc>
    <g id="Icon/Tasklis" stroke="none" stroke-width="1" fill="none" fill-rule="evenodd">
        <g id="Group" transform="translate(6.000000, 5.000000)" stroke="#FFFFFF">
            <path d="M4.40456561,1.62759403 C4.42802214,0.724739392 5.17197937,0 6.08629731,0 C7.00061524,0 7.74457248,0.724739392 7.768029,1.62759403 L12,1.62759403 L12,15 L7.10542736e-15,15 L7.10542736e-15,1.62759403 L4.40456561,1.62759403 Z" id="Combined-Shape"></path>
            <path d="M3,12 L3,10.3414306 L6.72795512,6.86707117 C7.25689331,6.52277802 7.75828159,6.52277802 8.23211994,6.86707117 C8.94287747,7.38351091 9.1201278,8.03547615 8.8482655,8.39706106 C8.66702397,8.63811767 7.29887461,9.83909732 4.74381742,12 L3,12 Z" id="Path-3"></path>
            <polyline id="Path-2" points="3 2.04044516 3 4 9 4 9 2"></polyline>
        </g>
    </g>
</svg>